<?xml version="1.0" encoding="utf-8"?>
<!-- Generator: Adobe Illustrator 24.0.3, SVG Export Plug-In . SVG Version: 6.00 Build 0)  -->
<svg version="1.1" id="Layer_1" xmlns="http://www.w3.org/2000/svg" xmlns:xlink="http://www.w3.org/1999/xlink" x="0px" y="0px"
	 viewBox="0 0 75 31" style="enable-background:new 0 0 75 31;" xml:space="preserve">
<style type="text/css">
	.st0{fill:#010101;}
</style>
<path class="st0" d="M48.9,24.9c0,0,27.5-9.1,11.5-22.7c12.6,8.4,7.2,14.9,7.2,14.9s3.3-1.6,3.3-2.6c0,0,0.7,3.9-3.1,6.2l3.2,0.1
	c-2.9,3-16.2,5.6-16.2,5.6s11.8-2.9,12.7-4.5c0,0-2.1-0.7-2.4-0.9c0,0,4.3-1.8,4.2-3.6c0,0-2.9,1.1-3.6,1.1c0,0,1.4-2.4,1-2.9
	c0,0-0.8,0.9-6.1,4.3C55.3,23.2,48.9,24.9,48.9,24.9 M38.6,24.4c-8.2,0-14.8,1.2-14.8,2.6c0,1.5,6.7,2.6,14.8,2.6
	c8.2,0,14.8-1.2,14.8-2.6C53.4,25.6,46.8,24.4,38.6,24.4z M38.7,29.1c-6.6,0-11.9-0.9-11.9-2.1s5.3-2.1,11.9-2.1s11.9,0.9,11.9,2.1
	S45.3,29.1,38.7,29.1z M27.7,24.9c0,0-27.5-9.1-11.5-22.7C3.6,10.5,9,17,9,17l-5.1-1.3l4.9,4.9l-3.2,0.8c0-0.2,16.2,4.9,16.2,4.9
	L9.1,21.7c0,0,2.1-0.7,2.4-0.9l-4.2-3.6c0,0,2.9,1.1,3.6,1.1l-1-2.9c0,0,0.8,0.9,6.1,4.3C21.4,23.2,27.7,24.9,27.7,24.9z"/>
</svg>
