<?xml version="1.0" encoding="UTF-8" standalone="no"?>
<svg width="30px" height="34px" viewBox="0 0 30 34" version="1.1" xmlns="http://www.w3.org/2000/svg" xmlns:xlink="http://www.w3.org/1999/xlink" xmlns:sketch="http://www.bohemiancoding.com/sketch/ns">
    <!-- Generator: Sketch 3.3.3 (12072) - http://www.bohemiancoding.com/sketch -->
    <title>mio copy</title>
    <desc>Created with Sketch.</desc>
    <defs></defs>
    <g id="Page-1" stroke="none" stroke-width="1" fill="none" fill-rule="evenodd" sketch:type="MSPage">
        <g id="mio" sketch:type="MSLayerGroup" fill="#333333">
            <path d="M29.078,10.31 C28.473,8.919 25.473,8.421 25.284,7.394 C25.207,6.977 24.376,6.641 24.271,6.304 C24.271,6.304 23.749,6.194 23.629,5.91 C23.334,5.208 24.21,3.743 24.023,3.239 C23.71,2.389 19.472,1.627 16.952,0.718 C15.857,0.322 15.525,0.18 14.93,0.201 C14.461,0.216 13.038,-0.009 12.3,0.729 C12.107,0.922 5.45,2.602 4.893,3.474 C4.57,3.978 5.044,5.17 5.135,5.698 C5.282,6.551 4.772,7.451 4.584,7.597 C4.473,7.683 3.744,7.876 3.671,7.897 L3.008,8.547 C3.016,8.768 0.423,9.425 0.17,10.712 C0.01,11.534 1.154,11.463 1.306,12.756 C1.912,12.925 2.622,14.946 2.622,15.048 C2.845,15.178 4.24,16.848 4.359,17.21 C4.359,17.21 4.528,19.143 4.486,19.348 C4.681,19.557 7.477,22.035 7.328,22.602 C7.473,22.741 7.666,24.686 7.562,24.936 C7.791,24.957 9.274,27.418 9.24,27.526 C9.218,27.589 9.565,27.346 10.181,28.639 C10.215,28.706 10.854,30.16 10.906,30.203 C10.916,30.234 12.022,31.126 12.245,31.404 C12.298,31.425 14.461,32.465 14.933,33.799 C14.996,33.576 17.749,31.118 17.749,31.118 L18.277,30.609 C18.359,30.527 18.504,29.888 19.087,29.38 C19.191,29.287 20.236,28.395 20.172,28.502 C20.147,28.547 21.325,26.996 21.483,26.522 C21.487,26.509 21.542,25.501 21.561,25.383 C21.593,25.21 23.049,23.116 23.049,23.116 C23.076,23.027 23.561,21.084 23.561,21.084 C23.549,21.034 23.589,20.259 23.858,19.73 C23.908,19.636 24.815,18.282 25.421,17.895 C25.442,17.88 26.173,16.32 26.716,15.828 C26.76,15.79 26.904,14.508 26.914,14.485 C26.922,14.464 27.639,13.217 27.639,13.217 C27.57,11.778 29.438,11.141 29.078,10.31 L29.078,10.31 L29.078,10.31 Z M11.3,18.975 L7.73,13.635 L11.3,8.294 L13.673,8.294 L10.161,13.635 L13.673,18.975 L11.3,18.975 L11.3,18.975 Z M13.553,14.835 L13.553,12.432 L15.728,12.432 L15.728,14.835 L13.553,14.835 L13.553,14.835 Z M17.979,18.975 L15.606,18.975 L19.119,13.635 L15.606,8.294 L17.979,8.294 L21.547,13.635 L17.979,18.975 L17.979,18.975 Z" id="Shape" sketch:type="MSShapeGroup"></path>
        </g>
    </g>
</svg>