<?xml version="1.0" encoding="utf-8"?>
<!-- Generator: Adobe Illustrator 24.0.3, SVG Export Plug-In . SVG Version: 6.00 Build 0)  -->
<svg version="1.1" id="Layer_1" xmlns:sketch="http://www.bohemiancoding.com/sketch/ns"
	 xmlns="http://www.w3.org/2000/svg" xmlns:xlink="http://www.w3.org/1999/xlink" x="0px" y="0px" viewBox="0 0 30 34"
	 style="enable-background:new 0 0 30 34;" xml:space="preserve">
<style type="text/css">
	.st0{fill-rule:evenodd;clip-rule:evenodd;fill:#231F20;}
</style>
<title>mio copy</title>
<desc>Created with Sketch.</desc>
<g id="Page-1" sketch:type="MSPage">
	<g id="mio" sketch:type="MSLayerGroup">
		<path id="Shape" sketch:type="MSShapeGroup" class="st0" d="M29.1,10.3c-0.6-1.4-3.6-1.9-3.8-2.9c-0.1-0.4-0.9-0.8-1-1.1
			c0,0-0.5-0.1-0.6-0.4c-0.3-0.7,0.6-2.2,0.4-2.7c-0.3-0.9-4.6-1.6-7.1-2.5c-1.1-0.4-1.4-0.5-2-0.5c-0.5,0-1.9-0.2-2.6,0.5
			c-0.2,0.2-6.9,1.9-7.4,2.7C4.6,4,5,5.2,5.1,5.7c0.1,0.9-0.4,1.8-0.6,1.9C4.5,7.7,3.7,7.9,3.7,7.9L3,8.5c0,0.2-2.6,0.9-2.8,2.2
			c-0.2,0.8,1,0.8,1.1,2c0.6,0.2,1.3,2.2,1.3,2.3c0.2,0.1,1.6,1.8,1.7,2.2c0,0,0.2,1.9,0.1,2.1c0.2,0.2,3,2.7,2.8,3.3
			c0.1,0.1,0.3,2.1,0.2,2.3c0.2,0,1.7,2.5,1.7,2.6c0,0.1,0.3-0.2,0.9,1.1c0,0.1,0.7,1.5,0.7,1.6c0,0,1.1,0.9,1.3,1.2
			c0.1,0,2.2,1.1,2.7,2.4c0.1-0.2,2.8-2.7,2.8-2.7l0.5-0.5c0.1-0.1,0.2-0.7,0.8-1.2c0.1-0.1,1.1-1,1.1-0.9c0,0,1.2-1.5,1.3-2
			c0,0,0.1-1,0.1-1.1c0-0.2,1.5-2.3,1.5-2.3c0-0.1,0.5-2,0.5-2c0,0,0-0.8,0.3-1.4c0.1-0.1,1-1.4,1.6-1.8c0,0,0.8-1.6,1.3-2.1
			c0,0,0.2-1.3,0.2-1.3c0,0,0.7-1.3,0.7-1.3C27.6,11.8,29.4,11.1,29.1,10.3L29.1,10.3L29.1,10.3z M11.3,19l-3.6-5.3l3.6-5.3h2.4
			l-3.5,5.3l3.5,5.3H11.3L11.3,19z M13.6,14.8v-2.4h2.2v2.4H13.6L13.6,14.8z M18,19h-2.4l3.5-5.3l-3.5-5.3H18l3.6,5.3L18,19L18,19z"
			/>
	</g>
</g>
</svg>
